<?xml version="1.0" encoding="UTF-8" standalone="no"?>
<svg
  x="0px"
  y="0px"
  viewBox="0 0 100 100"
  xmlns:i="http://ns.adobe.com/AdobeIllustrator/10.0/"
>
  <path
    fill="#000000"
    d="M35.307,28.212c1.159-4.208,2.67-7.688,4.536-10.434c1.863-2.746,4.094-5.404,6.69-7.978    c2.594-2.569,4.422-4.243,5.48-5.024C53.071,3.994,53.927,3.403,54.582,3c-2.569,7.51-3.792,13.997-3.667,19.464    c0.126,5.468,1.236,9.892,3.327,13.268c2.092,3.376,5.128,5.896,9.109,7.56c0.908,0.354,1.736,0.58,2.495,0.679    c3.579,0.251,4.382-3.627,2.419-11.639c-1.058-4.287-2.143-7.535-3.25-9.754c8.263,5.492,14.477,12.51,18.633,21.054    c4.157,8.544,5.277,17.147,3.363,25.813c-0.756,3.381-1.938,6.451-3.553,9.223c-1.612,2.776-3.264,5.005-4.951,6.693    c-1.688,1.688-3.881,3.297-6.576,4.837c-2.696,1.535-4.9,2.657-6.614,3.361c-1.715,0.708-4.008,1.565-6.879,2.569    c-1.209,0.305-2.27,0.507-3.175,0.604c-0.908,0.104-1.677,0.169-2.306,0.192c-0.631,0.025-1.122-0.103-1.475-0.379    c-0.354-0.274-0.63-0.517-0.831-0.718c-0.202-0.202-0.266-0.592-0.189-1.172c0.076-0.581,0.152-1.059,0.227-1.438    c0.076-0.379,0.303-0.969,0.681-1.775c0.377-0.808,0.68-1.462,0.906-1.964c0.229-0.503,0.593-1.235,1.098-2.195    c1.106-2.215,2.052-4.242,2.834-6.083c0.78-1.842,1.297-3.593,1.551-5.255c0.856-5.035,0.199-9.676-1.967-13.91    c-2.169-4.231-5.241-8.365-9.222-12.396c1.006,1.964,1.333,5.936,0.982,11.905c-0.352,5.975-1.334,10.621-2.948,13.947    c-0.756,1.511-1.636,3.036-2.646,4.572c-1.008,1.54-2.217,3.091-3.626,4.651c-1.413,1.564-2.85,2.811-4.309,3.74    c-1.464,0.935-3.024,1.525-4.688,1.775c-1.664,0.256-3.278-0.147-4.838-1.204c-3.529-2.271-6.174-5.007-7.938-8.205    c-1.764-3.199-2.872-6.211-3.324-9.031c-0.253-1.516-0.379-3.101-0.379-4.763c0-1.664,0.19-3.805,0.566-6.429    c0.379-2.618,1.36-5.314,2.948-8.085c1.59-2.771,3.691-5.315,6.314-7.638c-0.708,1.614-0.972,3.503-0.795,5.669    c0.175,2.171,0.554,4.223,1.135,6.162c0.579,1.943,1.6,3.487,3.061,4.65c1.462,1.161,3.15,1.485,5.064,0.983    c0.908-0.201,1.688-0.506,2.342-0.91c0.655-0.404,1.184-0.915,1.59-1.549c0.4-0.631,0.743-1.231,1.019-1.812    c0.278-0.58,0.428-1.373,0.455-2.382c0.024-1.008,0.049-1.85,0.074-2.534c0.025-0.679-0.064-1.674-0.263-2.983    c-0.202-1.314-0.354-2.308-0.453-2.987c-0.104-0.679-0.303-1.762-0.606-3.253c-0.302-1.486-0.504-2.53-0.605-3.135    C33.946,36.613,34.146,32.42,35.307,28.212z"
    id="path2"
  />
</svg>
